<?xml version="1.0"?>
<svg version="1.1" xmlns="http://www.w3.org/2000/svg" width="145" height="36" style=""><path fill="#3196de" d="M15.953125,14.1875q0-0.734375,0.0390625-1.453125t0.1328125-1.421875q0.0625-0.359375,0.5546875-0.515625t0.8203125-0.15625l0.375,0.03125q0.453125,0.0625,0.9140625-0.0625t0.9140625-0.125q1.0625,0,2.375,0.234375t2.4609375,0.796875t1.9296875,1.4765625t0.78125,2.2578125t-0.8125,2.5078125t-2.046875,2.046875t-2.65625,1.3828125t-2.609375,0.5q0.125,3.015625,0.3515625,5.984375t0.7734375,5.9375l0.03125,0.203125q0,0.21875-0.1953125,0.359375t-0.4609375,0.2265625t-0.5390625,0.1171875t-0.4453125,0.03125q-0.390625,0-0.9453125-0.1484375t-0.6796875-0.5859375q-0.359375-1.375-0.5625-3.0234375t-0.296875-3.4453125t-0.1328125-3.6171875t-0.0390625-3.5546875l0-3.515625q0-0.578125-0.015625-1.203125t-0.015625-1.265625z M18.90625,11.65625q0,2.140625,0.046875,4.2734375t0.109375,4.2734375q0.921875-0.1875,1.8828125-0.6640625t1.734375-1.1328125t1.25-1.4921875t0.4765625-1.7578125q0-0.828125-0.4140625-1.484375t-1.0703125-1.125q-0.640625-0.453125-1.453125-0.703125q-0.71875-0.21875-1.40625-0.21875l-0.171875,0z M30.44796875,23.796875q0-0.640625,0.2265625-1.078125t0.9609375-0.4375q0.28125,0,0.703125,0.0859375t0.484375,0.4296875q0.15625,0.921875,0.171875,2t0.109375,2.03125q0.359375-0.703125,0.921875-1.515625t1.28125-1.5t1.5625-1.140625t1.71875-0.453125q0.0625,0,0.234375,0.046875t0.3203125,0.1328125t0.1796875,0.1953125t-0.171875,0.203125q-0.0625,0.1875-0.265625,0.2265625t-0.359375,0.0390625q-0.09375,0-0.296875-0.078125q-1.15625,0.609375-1.96875,1.65625t-1.328125,2.3203125t-0.75,2.6875t-0.234375,2.7578125q0,0.671875-0.3046875,0.8125t-0.9765625,0.140625q-0.359375,0-0.7578125-0.078125t-0.5546875-0.5q-0.28125-0.890625-0.4609375-2.046875t-0.2734375-2.3828125t-0.1328125-2.4140625t-0.0390625-2.140625z M41.2396875,28.46875q0-0.890625,0.2265625-1.8359375t0.71875-1.703125t1.2421875-1.234375t1.8125-0.4765625q0.796875,0,1.6796875,0.2734375t1.6171875,0.78125t1.1953125,1.2421875t0.4609375,1.640625q0,1.09375-0.3984375,2.078125t-1.1171875,1.7578125t-1.6796875,1.21875t-2.0859375,0.4453125q-0.921875,0-1.609375-0.3359375t-1.1484375-0.8984375t-0.6875-1.328125t-0.2265625-1.625z M43.5365625,28.4375q0,0.28125,0.0859375,0.828125t0.2578125,1.0703125t0.4453125,0.90625t0.6640625,0.3515625q0.828125-0.09375,1.3671875-0.5390625t0.875-1.0859375t0.46875-1.390625t0.1328125-1.421875q0-0.859375-0.3359375-1.4375t-1.1015625-0.9375q0,0.03125,0.03125,0.03125t0.03125-0.03125l-0.390625-0.09375q-0.15625-0.0625-0.3828125-0.140625t-0.4453125-0.34375q-0.609375,0.21875-0.9453125,0.5625t-0.5078125,0.8359375t-0.2109375,1.1796875t-0.0390625,1.65625z M53.11734375,24.2578125q-0.0390625-0.5234375,0.0625-0.9609375t0.40625-0.7109375t0.9765625-0.2734375q0.15625,0,0.3828125,0.0390625t0.4453125,0.1015625t0.3671875,0.1875t0.1484375,0.34375l0,1.765625q0.609375-0.703125,1.328125-1.0078125t1.640625-0.3046875q0.703125,0,1.390625,0.3203125t1.296875,0.8515625t1.0546875,1.171875t0.6484375,1.28125q0.125-0.578125,0.28125-1.4140625t0.4609375-1.6015625t0.8046875-1.3125t1.328125-0.546875q0.890625,0,1.5,0.640625t0.9921875,1.6640625t0.578125,2.2890625t0.2890625,2.5t0.09375,2.3046875l0,1.6796875q0,0.1875-0.140625,0.3046875t-0.3515625,0.1796875t-0.4375,0.078125t-0.3515625,0.015625q-0.484375,0-0.8828125-0.1484375t-0.3984375-0.7578125l0-1.40625t-0.03125-1.8203125t-0.109375-1.953125t-0.203125-1.7734375t-0.3203125-1.28125t-0.4765625-0.5q-0.390625,0-0.5625,0.4375t-0.2890625,1.109375t-0.1796875,1.421875t-0.171875,1.421875t-0.3515625,1.1015625t-0.6640625,0.4296875q-0.453125,0-0.796875-0.4296875t-0.6796875-1.0703125t-0.671875-1.375t-0.7421875-1.375q-0.40625-0.65625-0.875-1.0625q-0.421875-0.390625-0.953125-0.375l-0.078125,0q-0.703125,0.03125-1.1015625,0.5078125t-0.609375,1.1640625t-0.2578125,1.4765625t-0.046875,1.3828125q0,0.5625,0.09375,1.3125q0.0625,0.5,0.0625,0.953125q0,0.234375-0.015625,0.453125q-0.046875,0.65625-0.3515625,1.1015625t-1.1328125,0.4453125q-0.3125,0-0.78125-0.0625t-0.625-0.421875q-0.359375-0.640625-0.546875-1.6171875t-0.28125-2.015625t-0.109375-2.0625t-0.015625-1.7578125q0-0.515625-0.0390625-1.0390625z M72.823125,22.515625q0-0.734375,0.2890625-1.0859375t1.0546875-0.3515625q0.453125,0,0.8515625,0.1875t0.3984375,0.796875q0.0625,0.890625,0.0625,1.8671875t0.171875,1.8515625q0.390625-0.640625,0.8828125-1.28125t1.0859375-1.140625t1.296875-0.8046875t1.53125-0.3046875q1.125,0,1.90625,0.46875t1.2890625,1.21875t0.734375,1.6953125t0.2265625,1.8984375q0,1.46875-0.4453125,2.3984375t-1.1796875,1.4609375t-1.6640625,0.71875t-1.8671875,0.1875q-0.828125,0-1.546875-0.3203125t-1-1.2109375q0-0.25,0.3671875-0.3125t0.5234375-0.0625q0.515625,0,0.765625,0.28125q0.1875,0.21875,0.4140625,0.4453125t0.4765625,0.2265625q0.484375,0,1.015625-0.2734375t0.9765625-0.71875t0.75-1.0546875t0.3046875-1.25q0-0.546875-0.09375-1.359375t-0.3203125-1.5625t-0.625-1.296875t-1.0078125-0.546875q-0.921875,0-1.6640625,0.84375t-1.234375,2.03125t-0.765625,2.46875t-0.2734375,2.140625t0.109375,2.171875t0.2265625,2.7265625t0.2265625,2.7265625t0.109375,2.171875q0,0.21875-0.1796875,0.3515625t-0.4296875,0.2109375t-0.5078125,0.09375t-0.3828125,0.015625q-0.421875,0-0.8828125-0.09375t-0.6328125-0.578125q-0.21875-0.765625-0.40625-2.1796875t-0.3359375-3.125t-0.2578125-3.59375t-0.1875-3.6328125t-0.1171875-3.203125t-0.0390625-2.3125z M87.16171875,18.25q0-0.21875,0.46875-0.375t1.0625-0.2578125t1.1484375-0.1484375t0.7578125-0.078125q0-0.421875,0.03125-0.8515625t0.171875-0.765625t0.4453125-0.5390625t0.8515625-0.203125q0.453125,0,0.6875,0.109375t0.5,0.453125q0.0625,0.1875,0.0625,0.359375l0,0.5234375t-0.03125,0.5390625q0.578125-0.0625,1.1484375-0.1484375t1.1484375-0.0859375q0.421875,0,0.578125,0.015625t0.3125,0.375q0.125,0.359375-0.3046875,0.546875t-1.03125,0.28125t-1.1953125,0.140625t-0.71875,0.046875q-0.1875,2.6875-0.3828125,5.328125t-0.1953125,5.359375q0,1.21875,0.078125,2.515625t0.4375,2.453125q0.09375,0.359375,0.3125,0.671875t0.21875,0.671875q0,0.21875-0.171875,0.34375t-0.4140625,0.2109375t-0.484375,0.1015625t-0.3984375,0.015625q-0.984375,0-1.5-0.734375t-0.7421875-1.7578125t-0.2421875-2.1015625t-0.015625-1.75q0-1.375,0.0546875-2.8125t0.1328125-2.84375t0.21875-2.75t0.328125-2.5q-0.546875,0.0625-1.0703125,0.140625t-1.0703125,0.078125q-0.125,0-0.3359375-0.015625t-0.3984375-0.078125t-0.3203125-0.171875t-0.1328125-0.3125z M99.1096875,27.859375q0-1.125,0.2890625-2.2578125t0.8984375-2.03125t1.5546875-1.4609375t2.2265625-0.5625q0.546875,0,1.203125,0.1328125t1.2109375,0.421875t0.9375,0.75t0.3828125,1.1328125q0,0.421875-0.21875,0.5625t-0.578125,0.140625l-0.109375-0.15625t-0.3046875-0.3984375t-0.4140625-0.515625t-0.421875-0.4609375q-0.640625-0.640625-1.203125-0.6875l-0.125,0q-0.46875,0-0.875,0.28125q-0.453125,0.34375-0.8046875,0.96875t-0.5859375,1.328125t-0.3671875,1.421875t-0.1328125,1.1875q0,0.640625,0.1484375,1.4609375t0.5,1.5546875t0.890625,1.234375t1.3828125,0.5q0.765625,0,1.390625-0.375t1.1953125-0.8359375t1.1171875-0.828125t1.125-0.3671875q0.25,0,0.5078125,0.0625t0.2578125,0.328125l0,0.09375q-0.28125,0.734375-0.953125,1.296875t-1.5078125,0.9765625t-1.734375,0.6171875t-1.6015625,0.203125q-1.3125,0-2.3046875-0.4296875t-1.6484375-1.1796875t-0.9921875-1.8046875t-0.3359375-2.3046875z M112.43265625,28.46875q0-0.890625,0.2265625-1.8359375t0.71875-1.703125t1.2421875-1.234375t1.8125-0.4765625q0.796875,0,1.6796875,0.2734375t1.6171875,0.78125t1.1953125,1.2421875t0.4609375,1.640625q0,1.09375-0.3984375,2.078125t-1.1171875,1.7578125t-1.6796875,1.21875t-2.0859375,0.4453125q-0.921875,0-1.609375-0.3359375t-1.1484375-0.8984375t-0.6875-1.328125t-0.2265625-1.625z M114.72953125,28.4375q0,0.28125,0.0859375,0.828125t0.2578125,1.0703125t0.4453125,0.90625t0.6640625,0.3515625q0.828125-0.09375,1.3671875-0.5390625t0.875-1.0859375t0.46875-1.390625t0.1328125-1.421875q0-0.859375-0.3359375-1.4375t-1.1015625-0.9375q0,0.03125,0.03125,0.03125t0.03125-0.03125l-0.390625-0.09375q-0.15625-0.0625-0.3828125-0.140625t-0.4453125-0.34375q-0.609375,0.21875-0.9453125,0.5625t-0.5078125,0.8359375t-0.2109375,1.1796875t-0.0390625,1.65625z M124.3103125,24.2578125q-0.0390625-0.5234375,0.0625-0.9609375t0.40625-0.7109375t0.9765625-0.2734375q0.15625,0,0.3828125,0.0390625t0.4453125,0.1015625t0.3671875,0.1875t0.1484375,0.34375l0,1.765625q0.609375-0.703125,1.328125-1.0078125t1.640625-0.3046875q0.703125,0,1.390625,0.3203125t1.296875,0.8515625t1.0546875,1.171875t0.6484375,1.28125q0.125-0.578125,0.28125-1.4140625t0.4609375-1.6015625t0.8046875-1.3125t1.328125-0.546875q0.890625,0,1.5,0.640625t0.9921875,1.6640625t0.578125,2.2890625t0.2890625,2.5t0.09375,2.3046875l0,1.6796875q0,0.1875-0.140625,0.3046875t-0.3515625,0.1796875t-0.4375,0.078125t-0.3515625,0.015625q-0.484375,0-0.8828125-0.1484375t-0.3984375-0.7578125l0-1.40625t-0.03125-1.8203125t-0.109375-1.953125t-0.203125-1.7734375t-0.3203125-1.28125t-0.4765625-0.5q-0.390625,0-0.5625,0.4375t-0.2890625,1.109375t-0.1796875,1.421875t-0.171875,1.421875t-0.3515625,1.1015625t-0.6640625,0.4296875q-0.453125,0-0.796875-0.4296875t-0.6796875-1.0703125t-0.671875-1.375t-0.7421875-1.375q-0.40625-0.65625-0.875-1.0625q-0.421875-0.390625-0.953125-0.375l-0.078125,0q-0.703125,0.03125-1.1015625,0.5078125t-0.609375,1.1640625t-0.2578125,1.4765625t-0.046875,1.3828125q0,0.5625,0.09375,1.3125q0.0625,0.5,0.0625,0.953125q0,0.234375-0.015625,0.453125q-0.046875,0.65625-0.3515625,1.1015625t-1.1328125,0.4453125q-0.3125,0-0.78125-0.0625t-0.625-0.421875q-0.359375-0.640625-0.546875-1.6171875t-0.28125-2.015625t-0.109375-2.0625t-0.015625-1.7578125q0-0.515625-0.0390625-1.0390625z"/><path fill="#" d=""/></svg>
